<svg xmlns="http://www.w3.org/2000/svg" viewBox="0 0 64 64"><defs><style>.cls-1,.cls-2,.cls-3,.cls-4{stroke:#000;stroke-miterlimit:10;}.cls-1,.cls-3{stroke-width:4.04px;}.cls-2{fill:#ddd;stroke-width:3.03px;}.cls-3,.cls-4{fill:none;}.cls-4{stroke-width:2.02px;}</style></defs><title>Artboard 12</title><g id="Leaf"><path class="cls-1" d="M33.81,48.49H32.07l-2.55.91-2-.46-2,1.76-1.8.7-4,1.91a8.16,8.16,0,0,0-2.41-.5c-1,.18-3.41,2.2-3.41,2.2a9.08,9.08,0,0,0-2.51.71c-.77.59-2,3.37-2,3.37s-2.6,1.36-.91,1.84c7.17,2,38.9.59,38.9.59S49.74,61.17,50,60a7,7,0,0,0,0-1.4s1.11-.31,1.31-.61c.46-.69.11-2.65-.41-3.31s-2.7-1-2.7-1,1-3,.6-3.31c-.27-.18-1.31,0-1.31,0l-3.11-1a9.21,9.21,0,0,0-1.9-1.91,6.91,6.91,0,0,0-2,0A6.77,6.77,0,0,0,38.59,47a8.46,8.46,0,0,0-2.2,1.33S35.81,47,35.4,47,33.81,48.49,33.81,48.49Z"/><path class="cls-2" d="M22.82,7.45c3.36-1.79,3.59-5.54.63-5.46s-6.54,2.17-10.22,1.4C11.38,3,8.46,1.31,5.74,2.46c-2,.83-5.86,4.77,1,7.18S19.25,9.36,22.82,7.45Z"/><path class="cls-3" d="M25.48,3.63s3-2.76,5.65-.93c3.74,2.55-1.43,10.26,1,17,3.23,8.75,1.51,14.24.57,17.25a91.77,91.77,0,0,0-2.8,10.6"/><path class="cls-2" d="M34.29,22.23c.12-3.91,2.63-10.6,12.08-11.38A22.56,22.56,0,0,0,61.06,3.78S62.69,14,52.28,24.37c-9.1,9.08-17.74,1.52-17.74,1.52A31.07,31.07,0,0,1,34.29,22.23Z"/><path class="cls-4" d="M34.54,25.89c20.2-6,26.52-22.11,26.52-22.11"/></g></svg>